<svg width="204" height="45" viewBox="0 0 204 45" fill="none" xmlns="http://www.w3.org/2000/svg">
<path d="M203.426 17.8199C203.486 19.1557 202.919 20.5363 201.683 21.9554C200.445 23.3767 198.564 24.8031 196.079 26.2086C191.11 29.0189 183.824 31.6918 174.737 34.0765C156.572 38.8437 131.318 42.4323 103.284 43.7039C75.2501 44.9755 49.7745 43.6881 31.2523 40.5851C21.9871 39.0328 14.4889 37.0306 9.28582 34.6817C6.68351 33.5069 4.68115 32.2568 3.31977 30.9533C1.96056 29.6519 1.2705 28.3284 1.2099 26.9925C1.14931 25.6567 1.71671 24.2761 2.95252 22.857C4.19029 21.4357 6.07125 20.0093 8.55651 18.6038C13.5255 15.7935 20.8117 13.1206 29.8983 10.7359C48.0635 5.96871 73.318 2.38015 101.352 1.10852C129.386 -0.163116 154.861 1.12429 173.383 4.22736C182.649 5.77958 190.147 7.7818 195.35 10.1307C197.952 11.3055 199.955 12.5557 201.316 13.8591C202.675 15.1605 203.365 16.484 203.426 17.8199Z" stroke="#3938A0"/>
</svg>
