<svg width="570" height="72" viewBox="0 0 570 72" fill="none" xmlns="http://www.w3.org/2000/svg">
<path d="M568.744 30.9135C568.78 33.0344 567.054 35.2881 563.323 37.6144C559.629 39.918 554.128 42.1907 546.986 44.3976C532.708 48.809 511.984 52.9229 486.322 56.5218C435.004 63.7186 364.012 68.8456 285.513 70.1942C207.013 71.5427 135.887 68.8571 84.352 63.4271C58.5811 60.7118 37.7284 57.3121 23.3075 53.3937C16.0933 51.4335 10.518 49.351 6.7467 47.1757C2.93816 44.9788 1.13598 42.7858 1.09955 40.6649C1.06311 38.544 2.7889 36.2903 6.51974 33.964C10.2141 31.6603 15.7146 29.3876 22.8572 27.1808C37.135 22.7694 57.8586 18.6554 83.521 15.0565C134.839 7.85974 205.831 2.73272 284.33 1.3842C362.83 0.0356798 433.956 2.72129 485.491 8.15123C511.262 10.8666 532.115 14.2663 546.536 18.1847C553.75 20.1449 559.325 22.2273 563.096 24.4027C566.905 26.5995 568.707 28.7926 568.744 30.9135Z" stroke="#3938A0"/>
</svg>
