<svg width="240" height="44" viewBox="0 0 240 44" fill="none" xmlns="http://www.w3.org/2000/svg">
<path d="M239.229 16.6669C239.285 17.9115 238.629 19.2349 237.152 20.6271C235.678 22.0162 233.446 23.4161 230.504 24.8001C224.626 27.5663 216.028 30.2183 205.326 32.6073C183.93 37.3835 154.22 41.0878 121.272 42.5823C88.3237 44.0769 58.4006 43.0776 36.6599 40.2581C25.7854 38.8478 16.9827 36.9851 10.8778 34.7625C7.82326 33.6505 5.47327 32.4585 3.8799 31.2085C2.28301 29.9557 1.50952 28.6972 1.45307 27.4525C1.39661 26.2079 2.05298 24.8845 3.52989 23.4923C5.00354 22.1032 7.23597 20.7033 10.1773 19.3193C16.0558 16.5531 24.6538 13.9011 35.3559 11.5121C56.7521 6.73593 86.4619 3.03161 119.41 1.53706C152.358 0.0425122 182.281 1.04184 204.022 3.86133C214.896 5.2716 223.699 7.13426 229.804 9.35686C232.858 10.4689 235.208 11.6609 236.802 12.9109C238.399 14.1637 239.172 15.4222 239.229 16.6669Z" stroke="#3938A0"/>
</svg>
