<svg width="267" height="44" viewBox="0 0 267 44" fill="none" xmlns="http://www.w3.org/2000/svg">
<path d="M266.343 16.0448C266.398 17.2662 265.672 18.5897 264.007 19.9999C262.351 21.4021 259.848 22.8175 256.557 24.2193C249.982 27.0206 240.376 29.7197 228.431 32.1655C204.549 37.0557 171.407 40.916 134.67 42.5824C97.9319 44.2489 64.5766 43.405 40.3502 40.697C28.233 39.3426 18.4224 37.5243 11.6198 35.3299C8.21572 34.2318 5.59486 33.0488 3.81884 31.8022C2.03281 30.5486 1.19011 29.2963 1.13471 28.0748C1.0793 26.8533 1.80515 25.5298 3.47035 24.1197C5.12622 22.7174 7.62921 21.302 10.9199 19.9002C17.4959 17.099 27.1015 14.3999 39.0463 11.954C62.9281 7.06382 96.07 3.20358 132.808 1.53713C169.546 -0.129319 202.901 0.714559 227.127 3.42251C239.244 4.77693 249.055 6.59528 255.858 8.78967C259.262 9.88778 261.883 11.0708 263.659 12.3173C265.445 13.5709 266.287 14.8233 266.343 16.0448Z" stroke="#3938A0"/>
</svg>
