<svg width="28" height="29" viewBox="0 0 28 29" fill="none" xmlns="http://www.w3.org/2000/svg">
<path d="M1 25.1996V3.19958C1 2.66915 1.21071 2.16044 1.58579 1.78537C1.96086 1.4103 2.46957 1.19958 3 1.19958H25C25.5304 1.19958 26.0391 1.4103 26.4142 1.78537C26.7893 2.16044 27 2.66915 27 3.19958V25.1996C27 25.73 26.7893 26.2387 26.4142 26.6138C26.0391 26.9889 25.5304 27.1996 25 27.1996H19V17.7196H20.42C20.7436 17.7196 21.0539 17.591 21.2827 17.3623C21.5115 17.1335 21.64 16.8231 21.64 16.4996V14.9596C21.64 14.636 21.5115 14.3257 21.2827 14.0969C21.0539 13.8681 20.7436 13.7396 20.42 13.7396H19.08V11.8596C19.08 10.1796 19.84 10.1796 20.6 10.1796H21.58C21.741 10.1862 21.9014 10.1574 22.05 10.0952C22.1986 10.033 22.3318 9.93891 22.44 9.81958C22.5562 9.70894 22.6482 9.57537 22.7102 9.42734C22.7722 9.27931 22.8027 9.12004 22.8 8.95959V7.47959C22.8053 7.31672 22.7785 7.15441 22.7211 7.00192C22.6637 6.84943 22.5767 6.70975 22.4653 6.59087C22.3538 6.472 22.2201 6.37625 22.0716 6.30911C21.9231 6.24197 21.7629 6.20475 21.6 6.19958H19.3C18.6289 6.17435 17.9603 6.29511 17.3404 6.5535C16.7205 6.81189 16.1641 7.20176 15.7097 7.69619C15.2552 8.19062 14.9134 8.77781 14.708 9.41721C14.5026 10.0566 14.4385 10.733 14.52 11.3996V13.7396H13.24C13.0781 13.7369 12.9173 13.7665 12.767 13.8266C12.6166 13.8868 12.4798 13.9762 12.3644 14.0898C12.249 14.2033 12.1573 14.3387 12.0947 14.488C12.0322 14.6374 12 14.7977 12 14.9596V16.4996C12 16.6615 12.0322 16.8218 12.0947 16.9711C12.1573 17.1205 12.249 17.2559 12.3644 17.3694C12.4798 17.483 12.6166 17.5724 12.767 17.6325C12.9173 17.6926 13.0781 17.7222 13.24 17.7196H14.52V27.1996H3C2.46957 27.1996 1.96086 26.9889 1.58579 26.6138C1.21071 26.2387 1 25.73 1 25.1996Z" stroke="black" stroke-width="2.76912" stroke-linecap="round" stroke-linejoin="round"/>
</svg>
