<svg width="31" height="30" viewBox="0 0 31 30" fill="none" xmlns="http://www.w3.org/2000/svg">
<path d="M9.37484 0.116302H21.6248C26.2915 0.116302 30.0832 3.90797 30.0832 8.57464V20.8246C30.0832 23.0679 29.192 25.2193 27.6058 26.8056C26.0195 28.3918 23.8681 29.283 21.6248 29.283H9.37484C4.70817 29.283 0.916504 25.4913 0.916504 20.8246V8.57464C0.916504 6.33135 1.80765 4.17994 3.39389 2.59369C4.98014 1.00745 7.13155 0.116302 9.37484 0.116302ZM9.08317 3.03297C7.69078 3.03297 6.35543 3.58609 5.37086 4.57066C4.38629 5.55522 3.83317 6.89058 3.83317 8.28297V21.1163C3.83317 24.0184 6.18109 26.3663 9.08317 26.3663H21.9165C23.3089 26.3663 24.6442 25.8132 25.6288 24.8286C26.6134 23.844 27.1665 22.5087 27.1665 21.1163V8.28297C27.1665 5.38089 24.8186 3.03297 21.9165 3.03297H9.08317ZM23.1561 5.22047C23.6396 5.22047 24.1032 5.41253 24.4451 5.75439C24.7869 6.09625 24.979 6.55992 24.979 7.04339C24.979 7.52685 24.7869 7.99052 24.4451 8.33238C24.1032 8.67424 23.6396 8.8663 23.1561 8.8663C22.6726 8.8663 22.209 8.67424 21.8671 8.33238C21.5252 7.99052 21.3332 7.52685 21.3332 7.04339C21.3332 6.55992 21.5252 6.09625 21.8671 5.75439C22.209 5.41253 22.6726 5.22047 23.1561 5.22047ZM15.4998 7.40797C17.4337 7.40797 19.2884 8.1762 20.6558 9.54365C22.0233 10.9111 22.7915 12.7658 22.7915 14.6996C22.7915 16.6335 22.0233 18.4882 20.6558 19.8556C19.2884 21.2231 17.4337 21.9913 15.4998 21.9913C13.566 21.9913 11.7113 21.2231 10.3439 19.8556C8.9764 18.4882 8.20817 16.6335 8.20817 14.6996C8.20817 12.7658 8.9764 10.9111 10.3439 9.54365C11.7113 8.1762 13.566 7.40797 15.4998 7.40797ZM15.4998 10.3246C14.3395 10.3246 13.2267 10.7856 12.4062 11.606C11.5858 12.4265 11.1248 13.5393 11.1248 14.6996C11.1248 15.86 11.5858 16.9728 12.4062 17.7932C13.2267 18.6137 14.3395 19.0746 15.4998 19.0746C16.6602 19.0746 17.773 18.6137 18.5934 17.7932C19.4139 16.9728 19.8748 15.86 19.8748 14.6996C19.8748 13.5393 19.4139 12.4265 18.5934 11.606C17.773 10.7856 16.6602 10.3246 15.4998 10.3246Z" fill="black"/>
</svg>
