<svg width="75" height="48" viewBox="0 0 75 48" fill="none" xmlns="http://www.w3.org/2000/svg">
<path d="M58.5148 10.2221C58.5148 14.3531 55.2172 17.6605 51.1104 17.6605C46.9916 17.6605 43.672 14.3409 43.672 10.2221C43.672 6.10322 46.9916 2.78363 51.1104 2.78363C55.2172 2.78363 58.5148 6.09109 58.5148 10.2221ZM31.2559 10.2221C31.2559 14.3531 27.9583 17.6605 23.8515 17.6605C19.7327 17.6605 16.4131 14.3409 16.4131 10.2221C16.4131 6.10322 19.7327 2.78363 23.8515 2.78363C27.9583 2.78363 31.2559 6.09109 31.2559 10.2221ZM2.78363 39.1846C2.78363 38.2227 3.24342 37.1748 4.49752 36.0182C5.77062 34.8441 7.66728 33.7556 9.98278 32.829C14.6183 30.974 20.2296 30.0425 23.8515 30.0425C27.4734 30.0425 33.0848 30.974 37.7203 32.829C40.0358 33.7556 41.9324 34.8441 43.2055 36.0182C44.4596 37.1748 44.9194 38.2227 44.9194 39.1846V44.2957C44.9194 44.6324 44.6324 44.9194 44.2957 44.9194H3.40736C3.07067 44.9194 2.78363 44.6324 2.78363 44.2957V39.1846ZM54.5122 30.2564C57.7638 30.6289 61.6267 31.4874 64.9792 32.829C67.2947 33.7556 69.1913 34.8441 70.4644 36.0182C71.7185 37.1748 72.1783 38.2227 72.1783 39.1846V44.2957C72.1783 44.6324 71.8913 44.9194 71.5546 44.9194H57.285C57.2958 44.7132 57.3014 44.5052 57.3014 44.2957V39.1846C57.3014 35.7023 56.2283 32.743 54.5122 30.2564Z" stroke="black" stroke-width="5.56727"/>
</svg>
