<svg width="51" height="55" viewBox="0 0 51 55" fill="none" xmlns="http://www.w3.org/2000/svg">
<path d="M22.7787 0.189209C28.0973 0.189556 33.2342 2.12461 37.2312 5.63342C41.2282 9.14223 43.8123 13.9852 44.5015 19.2589L50.6619 28.9485C51.0671 29.5864 50.985 30.5365 50.0459 30.9417L44.6822 33.2361V41.2582C44.6822 42.7105 44.1053 44.1033 43.0784 45.1303C42.0515 46.1572 40.6587 46.7341 39.2064 46.7341H33.7332L33.7305 54.9479H9.08907V44.834C9.08907 41.6032 7.89533 38.545 5.68034 35.7851C3.10038 32.5638 1.48302 28.6792 1.0146 24.5787C0.546175 20.4783 1.24575 16.329 3.03273 12.6088C4.8197 8.88863 7.62135 5.74902 11.1149 3.55171C14.6084 1.35439 18.6516 0.188795 22.7787 0.189209ZM22.7787 5.66508C19.6837 5.66495 16.6516 6.53916 14.0318 8.18699C11.4119 9.83482 9.31079 12.1892 7.97055 14.979C6.63031 17.7688 6.10544 20.8804 6.4564 23.9555C6.80736 27.0306 8.01987 29.9439 9.95425 32.36C12.9496 36.0945 14.5649 40.3465 14.5649 44.834V49.4721H28.2546L28.2601 41.2582H39.2064V29.6275L43.4502 27.8095L39.2255 21.17L39.0695 19.9598C38.5512 16.006 36.6126 12.3756 33.6153 9.74552C30.618 7.11542 26.7664 5.66514 22.7787 5.66508ZM22.7787 13.8789C23.5049 13.8789 24.2013 14.1673 24.7148 14.6808C25.2282 15.1943 25.5167 15.8907 25.5167 16.6168V19.3548H28.2546C28.9808 19.3548 29.6772 19.6432 30.1906 20.1567C30.7041 20.6701 30.9926 21.3666 30.9926 22.0927C30.9926 22.8188 30.7041 23.5152 30.1906 24.0287C29.6772 24.5422 28.9808 24.8306 28.2546 24.8306H25.5167V27.5686C25.5167 28.2947 25.2282 28.9911 24.7148 29.5046C24.2013 30.018 23.5049 30.3065 22.7787 30.3065C22.0526 30.3065 21.3562 30.018 20.8427 29.5046C20.3293 28.9911 20.0408 28.2947 20.0408 27.5686V24.8279L17.3029 24.8306C16.5767 24.8306 15.8803 24.5422 15.3669 24.0287C14.8534 23.5152 14.5649 22.8188 14.5649 22.0927C14.5649 21.3666 14.8534 20.6701 15.3669 20.1567C15.8803 19.6432 16.5767 19.3548 17.3029 19.3548L20.0408 19.352V16.6168C20.0408 15.8907 20.3293 15.1943 20.8427 14.6808C21.3562 14.1673 22.0526 13.8789 22.7787 13.8789Z" fill="black"/>
</svg>
