<svg width="609" height="15" viewBox="0 0 609 15" fill="none" xmlns="http://www.w3.org/2000/svg">
<path d="M4.03765 6.1501C0.503309 5.9358 -0.304499 5.90521 3.53832 6.01328C20.1456 6.48033 37.9716 5.53051 54.5085 5.21969C99.7797 4.36878 145.016 3.15948 190.173 1.77167C287.643 0.583605 367.682 2.54601 456.048 3.13993C502.497 3.45212 548.738 2.94837 595.169 2.94837C596.238 2.94837 613.215 2.97574 606.385 2.97574C585.858 2.97574 565.217 3.80744 544.775 4.37136C487.637 5.9476 429.514 7.10519 372.928 10.3917C366.204 10.7822 346.155 11.2648 352.84 11.7326C361.101 12.3106 370.253 12.2838 378.536 12.3346C408.904 12.5212 439.277 12.1705 469.645 12.1705C489.379 12.1705 548.147 11.6675 528.796 13.0461" stroke="#3938A0" stroke-width="2" stroke-linecap="round"/>
</svg>
