<svg width="55" height="22" viewBox="0 0 55 22" fill="none" xmlns="http://www.w3.org/2000/svg">
<path d="M12.4135 18.0373C13.2826 18.0373 14.122 17.8596 14.9318 17.5041C15.7416 17.1485 16.4921 16.635 17.1834 15.9635L17.9537 16.8227C15.5243 19.9038 12.7394 21.4444 9.59901 21.4444C7.80166 21.4444 6.23145 21.0395 4.88838 20.2297C3.56506 19.4199 2.53801 18.2744 1.80722 16.793C1.07643 15.3117 0.711038 13.5736 0.711038 11.5788C0.711038 9.86041 1.03693 8.20132 1.68871 6.60149C2.36025 4.9819 3.20954 3.68821 4.2366 2.72041C5.2439 2.06862 6.32033 1.57485 7.46589 1.23908C8.63121 0.88356 9.77677 0.7058 10.9026 0.7058C12.4037 0.7058 13.7764 1.03169 15.0207 1.68348C16.2847 2.31551 17.2822 3.20431 18.013 4.34987L14.3689 7.40141C13.3418 5.58431 12.1074 3.61908 10.6656 1.50572C9.79652 1.86124 9.00648 2.47352 8.29544 3.34257C7.5844 4.21161 7.0215 5.24854 6.60672 6.45336C6.2117 7.65817 6.01419 8.91236 6.01419 10.2159C6.01419 12.7046 6.56722 14.6303 7.67328 15.9931C8.79909 17.3559 10.3792 18.0373 12.4135 18.0373ZM30.7628 19.4594L26.4077 21.5037C25.8744 21.1284 25.509 20.6149 25.3115 19.9631C24.6005 20.3976 23.8796 20.7531 23.1488 21.0296C22.4377 21.3061 21.8156 21.4444 21.2823 21.4444C20.4725 21.4444 19.8108 21.158 19.2973 20.5852C18.7838 20.0124 18.527 19.2817 18.527 18.3929C18.527 17.9978 18.5665 17.5732 18.6455 17.1189C18.7443 16.6449 18.8628 16.2696 19.001 15.9931L25.2819 14.9858L25.3411 14.1266C25.3806 13.2378 25.193 12.5466 24.7782 12.0528C24.3635 11.5392 23.6919 11.2825 22.7636 11.2825C22.3488 11.2825 21.9143 11.3319 21.46 11.4306C21.0058 11.5096 20.6206 11.6183 20.3046 11.7565L19.8306 12.7638L19.0307 12.4675L20.3935 8.20132C21.9143 7.54954 23.3561 7.22365 24.719 7.22365C26.1213 7.22365 27.2669 7.59892 28.1557 8.34946C29.0445 9.08024 29.4888 10.2357 29.4888 11.8158L29.4592 12.4083L29.163 16.4079L29.1037 17.4744C29.1037 17.83 29.1333 18.1163 29.1926 18.3336C29.2518 18.5311 29.3506 18.7385 29.4888 18.9558L30.4073 18.6002L30.7628 19.4594ZM24.0376 19.3113C24.3536 19.3113 24.719 19.1928 25.1337 18.9558L25.1041 18.3336L25.1337 17.6818L25.2226 15.9931L22.9414 16.5264C22.8624 16.7832 22.8229 17.1288 22.8229 17.5633C22.8229 18.1558 22.9414 18.6002 23.1784 18.8965C23.4154 19.173 23.7018 19.3113 24.0376 19.3113ZM36.7464 11.7269L36.6279 20.0519L39.2647 20.1408V21H31.3544V20.1408L32.4506 20.0519L32.3617 9.44564L31.2359 9.71228L30.9396 8.82348L35.6206 7.37178L36.6279 10.5418C37.2797 9.2185 37.9907 8.19145 38.761 7.46066C39.1956 7.30265 39.719 7.22365 40.3312 7.22365C41.1608 7.22365 41.941 7.37178 42.6717 7.66804L41.7237 11.5195C41.1509 11.401 40.4201 11.2924 39.5313 11.1936C38.6425 11.0949 37.9117 11.0257 37.339 10.9862L36.7464 11.7269ZM49.1289 7.22365C50.867 7.22365 52.2299 7.85568 53.2174 9.11975C54.2247 10.3641 54.7185 12.0528 54.6987 14.1859L46.5218 14.4525C46.6601 15.6178 47.065 16.5066 47.7365 17.1189C48.408 17.7312 49.2968 18.0373 50.4029 18.0373C51.9435 18.0373 53.1977 17.6127 54.1655 16.7634L54.6987 17.2374C54.0075 18.5607 53.0693 19.5977 51.8842 20.3482C50.7189 21.079 49.4746 21.4444 48.1513 21.4444C46.3539 21.4444 44.922 20.8519 43.8554 19.6668C42.8086 18.462 42.2852 16.8424 42.2852 14.808C42.2852 13.6032 42.5222 12.4083 42.9962 11.2232C43.49 10.0382 44.1122 9.05062 44.8627 8.26058C45.3762 7.96431 46.0379 7.71742 46.8477 7.51991C47.6575 7.3224 48.4179 7.22365 49.1289 7.22365ZM50.314 13.2082C50.2943 11.8256 50.0967 10.7295 49.7215 9.91966C49.3462 9.10987 48.8129 8.62597 48.1216 8.46796C47.6279 8.98149 47.223 9.7024 46.907 10.6307C46.6107 11.5392 46.4626 12.4774 46.4626 13.4452V13.5341L50.314 13.2082Z" fill="#3938A0"/>
</svg>
