<svg width="49" height="49" viewBox="0 0 49 49" fill="none" xmlns="http://www.w3.org/2000/svg">
<path d="M13.9064 35.1627L18.1877 33.9276L43.9656 7.84099C44.1689 7.63263 44.2821 7.35265 44.2808 7.06152C44.2794 6.77039 44.1636 6.49148 43.9583 6.28503L42.4145 4.72421C42.3147 4.6217 42.1955 4.5401 42.0639 4.48415C41.9323 4.4282 41.7908 4.39904 41.6478 4.39836C41.5047 4.39768 41.363 4.4255 41.2308 4.48019C41.0987 4.53489 40.9787 4.61536 40.878 4.71692L15.1682 30.7355L13.904 35.1602L13.9064 35.1627ZM45.4705 1.63174L47.0143 3.19499C49.144 5.35146 49.1635 8.83049 47.0532 10.9651L20.49 37.8491L11.3391 40.4845C10.7804 40.6409 10.1824 40.5693 9.67652 40.2853C9.17059 40.0014 8.79797 39.5283 8.64044 38.9699C8.52321 38.5685 8.52153 38.1421 8.63558 37.7397L11.2977 28.404L37.7904 1.59041C38.2941 1.08316 38.8938 0.681297 39.5545 0.408252C40.2152 0.135207 40.9237 -0.00355175 41.6386 6.9077e-05C42.3535 0.0036899 43.0605 0.149618 43.7184 0.429341C44.3763 0.709065 44.9719 1.11942 45.4705 1.63174ZM17.4656 4.4349C18.6715 4.4349 19.6488 5.42439 19.6488 6.64485C19.6508 6.93335 19.5958 7.21941 19.4871 7.48665C19.3784 7.7539 19.2181 7.9971 19.0153 8.20235C18.8126 8.40759 18.5713 8.57086 18.3054 8.68281C18.0395 8.79476 17.7542 8.85321 17.4656 8.8548H8.73282C6.32109 8.8548 4.36641 10.8338 4.36641 13.2723V39.7868C4.36641 42.2277 6.32109 44.2067 8.73282 44.2067H34.9313C37.343 44.2067 39.3001 42.2277 39.3001 39.7868V30.9494C39.3001 29.729 40.2775 28.7395 41.4833 28.7395C42.6892 28.7395 43.6665 29.729 43.6665 30.9519V39.7868C43.6665 44.6686 39.7548 48.6266 34.9313 48.6266H8.73282C3.90935 48.6266 0 44.6686 0 39.7868V13.2723C0 8.39287 3.90935 4.4349 8.73282 4.4349H17.4656Z" fill="black"/>
</svg>
