<svg width="33" height="28" viewBox="0 0 33 28" fill="none" xmlns="http://www.w3.org/2000/svg">
<path d="M9.72134 19.4857C8.09802 20.7217 6.23479 21.6286 4.24254 22.1523C4.0231 22.2295 3.83351 22.3703 3.69952 22.5557C3.56554 22.741 3.49366 22.9618 3.49366 23.1881C3.49366 23.4144 3.56554 23.6352 3.69952 23.8205C3.83351 24.0059 4.0231 24.1467 4.24254 24.2239C19.9742 30.4828 29.977 20.808 28.4538 10.0753L31 4.96242H28.0446C24.3618 0.576802 14.5863 0.797186 16.2004 10.1414C16.2004 10.1414 10.9717 11.045 4.288 4.67593C4.1334 4.52795 3.93828 4.42604 3.72577 4.38224C3.51326 4.33844 3.29225 4.35461 3.08892 4.42881C2.88559 4.50302 2.70846 4.63216 2.5785 4.80094C2.44854 4.96972 2.37121 5.17108 2.35565 5.38115C1.64893 8.19731 2.0026 11.1656 3.35297 13.7514C4.70335 16.3372 6.96169 18.3707 9.72134 19.4857Z" stroke="black" stroke-width="3.0706" stroke-linecap="round" stroke-linejoin="round"/>
</svg>
